<?xml version="1.0" encoding="UTF-8"?>
<svg xmlns="http://www.w3.org/2000/svg" xmlns:xlink="http://www.w3.org/1999/xlink" version="1.1" width="3840px" height="2160px" style="shape-rendering:geometricPrecision; text-rendering:geometricPrecision; image-rendering:optimizeQuality; fill-rule:evenodd; clip-rule:evenodd">
  <g>
    <path style="opacity:1" fill="#fe8e03" d="M 1849.5,40.5 C 1869.88,40.9423 1890.22,41.9423 1910.5,43.5C 1918.34,42.0362 1926.01,42.5362 1933.5,45C 1948.16,46.0949 1962.83,47.0949 1977.5,48C 2208.06,77.0929 2407.39,170.76 2575.5,329C 2654.14,404.446 2719.64,489.946 2772,585.5C 2775.66,589.367 2780.16,590.534 2785.5,589C 2787.54,588.546 2789.37,587.713 2791,586.5C 3039.45,571.949 3249.78,653.616 3422,831.5C 3566.88,991.275 3635.22,1179.94 3627,1397.5C 3610.71,1603.31 3527.88,1776.47 3378.5,1917C 3319.04,1970.23 3253.37,2014.23 3181.5,2049C 3091.11,2090.01 2996.11,2113.35 2896.5,2119C 2207.17,2119.67 1517.83,2119.67 828.5,2119C 796.615,2116.78 764.948,2112.78 733.5,2107C 702.864,2099.43 672.53,2091.09 642.5,2082C 631.482,2077.66 620.482,2073.33 609.5,2069C 446.641,1996.81 328.141,1879.64 254,1717.5C 195.08,1577.63 184.413,1433.96 222,1286.5C 273.144,1108.71 378.311,972.873 537.5,879C 592.538,848.825 650.538,825.825 711.5,810C 746.464,802.337 781.798,797.003 817.5,794C 826.833,793.667 836.167,793.333 845.5,793C 848.376,792.562 851.043,791.562 853.5,790C 919.461,570.953 1042.79,391.953 1223.5,253C 1248.22,235.277 1273.22,217.943 1298.5,201C 1343.64,172.93 1390.64,148.263 1439.5,127C 1468.49,116.013 1497.49,105.013 1526.5,94C 1550.36,87.7585 1574.03,80.7585 1597.5,73C 1613.56,69.3182 1629.56,65.6515 1645.5,62C 1673.05,56.6891 1700.72,52.0224 1728.5,48C 1754.28,46.9519 1779.95,44.9519 1805.5,42C 1820.34,41.8313 1835.01,41.3313 1849.5,40.5 Z"></path>
  </g>
  <g>
    <path style="opacity:1" fill="#fefefe" d="M 2834.5,687.5 C 2838.81,687.554 2843.14,687.554 2847.5,687.5C 2946.4,685.035 3042.06,704.868 3134.5,747C 3314.12,832.958 3435.29,970.458 3498,1159.5C 3498.2,1162.69 3499.03,1165.69 3500.5,1168.5C 3500.29,1169.09 3499.96,1169.59 3499.5,1170C 3503.23,1175.61 3504.9,1181.61 3504.5,1188C 3509.34,1198.54 3511.67,1209.21 3511.5,1220C 3513.84,1224.5 3515.34,1229.33 3516,1234.5C 3521.96,1269.26 3524.8,1303.59 3524.5,1337.5C 3523.32,1342.57 3523.32,1348.57 3524.5,1355.5C 3524.97,1363.92 3524.97,1373.25 3524.5,1383.5C 3523.81,1387.9 3523.14,1392.4 3522.5,1397C 3522.62,1398.14 3522.95,1399.31 3523.5,1400.5C 3523.12,1412.64 3522.29,1424.98 3521,1437.5C 3497.28,1599.42 3425.12,1735.92 3304.5,1847C 3212.33,1927.84 3105.83,1981 2985,2006.5C 2984.67,2006.17 2984.33,2005.83 2984,2005.5C 2982,2006.17 2980,2006.83 2978,2007.5C 2976.85,2006.54 2975.85,2006.88 2975,2008.5C 2974.44,2007.98 2973.77,2007.64 2973,2007.5C 2947.39,2012.35 2921.56,2015.52 2895.5,2017C 2226.08,2017.22 1559.92,2017.72 897,2018.5C 869.224,2017.83 841.391,2017 813.5,2016C 641.352,1996.72 503.519,1915.55 400,1772.5C 308.396,1634.26 280.729,1484.26 317,1322.5C 360.963,1162.48 455.463,1042.31 600.5,962C 697.164,913.222 795.998,890.722 897,894.5C 921.716,888.452 936.882,873.285 942.5,849C 1007.42,606.558 1146.76,417.558 1360.5,282C 1466.92,218.305 1581.25,175.971 1703.5,155C 1729.72,150.873 1756.05,147.873 1782.5,146C 1806.18,145.018 1829.85,143.851 1853.5,142.5C 1864.74,143.248 1875.91,144.248 1887,145.5C 1890.92,144.645 1894.75,144.312 1898.5,144.5C 1980.73,148.095 2061.73,161.929 2141.5,186C 2238.28,217.889 2327.95,263.222 2410.5,322C 2504.51,392.342 2583.68,476.508 2648,574.5C 2665.41,604.158 2682.91,633.658 2700.5,663C 2708.14,682.886 2722.97,693.386 2745,694.5C 2774.51,691.397 2804.34,689.064 2834.5,687.5 Z"></path>
  </g>
  <g>
    <path style="opacity:1" fill="#e6c79f" d="M 2847.5,687.5 C 2843.14,687.554 2838.81,687.554 2834.5,687.5C 2838.83,686.167 2843.17,686.167 2847.5,687.5 Z"></path>
  </g>
  <g>
    <path style="opacity:1" fill="#1a2b3c" d="M 2452.5,833.5 C 2490.4,833.263 2528.73,839.763 2567.5,853C 2577.9,856.948 2587.07,862.781 2595,870.5C 2597.64,874.072 2599.3,878.072 2600,882.5C 2600.67,894.833 2600.67,907.167 2600,919.5C 2599.01,925.82 2595.35,929.486 2589,930.5C 2571.57,924.203 2554.07,918.037 2536.5,912C 2499.15,902.066 2461.81,901.066 2424.5,909C 2389.25,917.997 2374.41,940.497 2380,976.5C 2382.83,986.987 2388.33,995.821 2396.5,1003C 2411.11,1013.64 2427.11,1021.64 2444.5,1027C 2476.57,1037.14 2508.57,1047.47 2540.5,1058C 2610.73,1086.62 2637.56,1138.12 2621,1212.5C 2606.57,1254.6 2578.73,1284.1 2537.5,1301C 2502.07,1314.71 2465.57,1320.55 2428,1318.5C 2389.95,1315.96 2353.12,1307.79 2317.5,1294C 2310.71,1291.1 2304.37,1287.44 2298.5,1283C 2293.68,1278.85 2290.52,1273.68 2289,1267.5C 2288.33,1253.83 2288.33,1240.17 2289,1226.5C 2291.87,1217.98 2297.7,1215.15 2306.5,1218C 2328.13,1227.65 2350.46,1235.32 2373.5,1241C 2399.76,1246.45 2425.26,1248.95 2450,1248.5C 2472.44,1247.93 2493.6,1242.43 2513.5,1232C 2538.46,1214.37 2546.29,1190.87 2537,1161.5C 2529.26,1145.76 2517.09,1134.93 2500.5,1129C 2460.61,1115.36 2420.61,1102.03 2380.5,1089C 2320.79,1064.09 2291.96,1019.26 2294,954.5C 2300.86,912.322 2322.69,880.489 2359.5,859C 2388.6,843.144 2419.6,834.644 2452.5,833.5 Z"></path>
  </g>
  <g>
    <path style="opacity:1" fill="#1b2b3c" d="M 1405.5,834.5 C 1437.02,834.365 1467.69,839.532 1497.5,850C 1537.54,866.379 1563.04,895.545 1574,937.5C 1579,956.167 1581.67,975.167 1582,994.5C 1582.08,1059.84 1582.74,1125.18 1584,1190.5C 1587.08,1214.09 1594.75,1236.09 1607,1256.5C 1610.51,1265.91 1608.34,1273.74 1600.5,1280C 1587.08,1289.09 1573.41,1297.76 1559.5,1306C 1554.41,1307.82 1549.41,1307.49 1544.5,1305C 1535.16,1297.47 1527.33,1288.64 1521,1278.5C 1514.75,1267.66 1508.75,1256.66 1503,1245.5C 1460.54,1295.98 1406.37,1319.48 1340.5,1316C 1286.95,1313.72 1248.12,1288.89 1224,1241.5C 1209.48,1203.08 1208.81,1164.41 1222,1125.5C 1237.53,1089.63 1263.37,1064.13 1299.5,1049C 1324.17,1039.6 1349.67,1034.43 1376,1033.5C 1415.21,1033.7 1455.54,1039.04 1497,1049.5C 1497.67,1030.17 1497.67,1010.83 1497,991.5C 1496.11,971.61 1490.45,953.277 1480,936.5C 1469.9,924.192 1457.07,916.025 1441.5,912C 1401.94,902.573 1361.94,903.906 1321.5,916C 1299.61,922.741 1277.94,930.074 1256.5,938C 1250.39,939.416 1246.22,937.25 1244,931.5C 1242.41,917.556 1242.07,903.556 1243,889.5C 1243.57,881.862 1247.07,876.028 1253.5,872C 1278.49,858.779 1304.83,849.112 1332.5,843C 1356.98,837.77 1381.32,834.936 1405.5,834.5 Z"></path>
  </g>
  <g>
    <path style="opacity:1" fill="#1a2b3c" d="M 1639.5,847.5 C 1660.5,847.333 1681.5,847.5 1702.5,848C 1712,849.161 1718.16,854.328 1721,863.5C 1751.13,979.706 1780.8,1096.04 1810,1212.5C 1837.35,1095.76 1865.02,979.089 1893,862.5C 1896.36,853.481 1902.86,848.647 1912.5,848C 1931.83,847.333 1951.17,847.333 1970.5,848C 1982.38,850.214 1989.21,857.381 1991,869.5C 2017.88,985.346 2045.21,1101.01 2073,1216.5C 2102.71,1098.99 2133.04,981.656 2164,864.5C 2166.83,854.671 2173.33,849.171 2183.5,848C 2204.56,847.034 2225.56,847.368 2246.5,849C 2250.21,851.929 2252.21,855.762 2252.5,860.5C 2251.62,864.809 2250.79,869.142 2250,873.5C 2206.86,1012.57 2163.53,1151.57 2120,1290.5C 2115.11,1300.29 2107.11,1305.29 2096,1305.5C 2080.1,1304.99 2063.93,1304.99 2047.5,1305.5C 2032.54,1305.44 2023.38,1298.1 2020,1283.5C 1993.49,1171.8 1966.82,1060.13 1940,948.5C 1912.67,1061.82 1885.34,1175.16 1858,1288.5C 1855.05,1298.12 1848.55,1303.29 1838.5,1304C 1818.5,1304.67 1798.5,1304.67 1778.5,1304C 1771.27,1303.14 1765.77,1299.64 1762,1293.5C 1759.08,1287.74 1756.75,1281.74 1755,1275.5C 1713.59,1139.28 1672.59,1002.95 1632,866.5C 1629.35,857.825 1631.85,851.492 1639.5,847.5 Z"></path>
  </g>
  <g>
    <path style="opacity:1" fill="#fefefe" d="M 1386.5,1095.5 C 1424.81,1094.13 1462.48,1098.3 1499.5,1108C 1498.68,1121.42 1498.18,1134.92 1498,1148.5C 1494.62,1190.76 1473.45,1220.26 1434.5,1237C 1407.31,1247.9 1379.31,1250.9 1350.5,1246C 1321.59,1237.71 1305.76,1218.54 1303,1188.5C 1299.2,1163.35 1305.2,1141.02 1321,1121.5C 1330.16,1112.33 1340.99,1105.83 1353.5,1102C 1364.47,1098.95 1375.47,1096.79 1386.5,1095.5 Z"></path>
  </g>
  <g>
    <path style="opacity:1" fill="#e6c79f" d="M 3524.5,1337.5 C 3525.83,1343.5 3525.83,1349.5 3524.5,1355.5C 3523.32,1348.57 3523.32,1342.57 3524.5,1337.5 Z"></path>
  </g>
  <g>
    <path style="opacity:1" fill="#e6c79f" d="M 3524.5,1383.5 C 3524.82,1389.36 3524.49,1395.02 3523.5,1400.5C 3522.95,1399.31 3522.62,1398.14 3522.5,1397C 3523.14,1392.4 3523.81,1387.9 3524.5,1383.5 Z"></path>
  </g>
  <g>
    <path style="opacity:1" fill="#fe9a00" d="M 2566.5,1411.5 C 2592.67,1410.97 2618.67,1412.8 2644.5,1417C 2658.92,1419.25 2672.09,1424.41 2684,1432.5C 2688.42,1442.34 2690.25,1452.68 2689.5,1463.5C 2685.43,1537.91 2660.93,1604.58 2616,1663.5C 2606.13,1675.04 2595.3,1685.54 2583.5,1695C 2571.17,1700.48 2565.67,1696.65 2567,1683.5C 2580.51,1650.29 2592.85,1616.63 2604,1582.5C 2611.59,1559.04 2616.42,1535.04 2618.5,1510.5C 2618.35,1502.22 2616.18,1494.55 2612,1487.5C 2605.8,1481.89 2598.8,1478.56 2591,1477.5C 2586.71,1475.64 2582.21,1474.47 2577.5,1474C 2546.63,1471.21 2515.97,1471.21 2485.5,1474C 2461.3,1476.2 2437.14,1478.7 2413,1481.5C 2402.1,1481.59 2398.76,1476.59 2403,1466.5C 2404.46,1464.04 2406.29,1461.87 2408.5,1460C 2444.19,1436.12 2482.86,1421.46 2524.5,1416C 2538.6,1414.02 2552.6,1412.52 2566.5,1411.5 Z"></path>
  </g>
  <g>
    <path style="opacity:1" fill="#fe9a00" d="M 1157.5,1442.5 C 1161.6,1442.23 1165.6,1442.73 1169.5,1444C 1400.44,1575.74 1649.11,1644.24 1915.5,1649.5C 2126.19,1650.21 2329.36,1609.21 2525,1526.5C 2534.6,1525.5 2542.94,1528.5 2550,1535.5C 2556.08,1545.81 2555.08,1555.48 2547,1564.5C 2483.29,1611.79 2414.12,1649.96 2339.5,1679C 2082.23,1776.98 1825.89,1786.32 1570.5,1707C 1412.97,1656.67 1273.47,1575.84 1152,1464.5C 1146.65,1455.24 1148.48,1447.91 1157.5,1442.5 Z"></path>
  </g>
</svg>
